<?xml version="1.0" encoding="utf-8"?>
<!-- Generator: Adobe Illustrator 22.0.1, SVG Export Plug-In . SVG Version: 6.00 Build 0)  -->
<svg version="1.1" xmlns="http://www.w3.org/2000/svg" xmlns:xlink="http://www.w3.org/1999/xlink" x="0px" y="0px"
	 viewBox="0 0 826.6 717.2" style="enable-background:new 0 0 826.6 717.2;" xml:space="preserve">
<style type="text/css">
	.st0{fill:#FAF42E;}
	.st1{fill:#2F2E2C;}
	.st2{fill:#48D4C7;}
	.st3{fill:#3CD338;}
	.st4{fill:#B21810;}
	.st5{fill:#11449D;}
	.st6{fill:#DD601E;}
	.st7{fill:#0F7391;}
	.st8{fill:#404040;}
	.st9{fill:#515151;}
	.st10{fill:#232323;}
	.st11{fill:url(#SVGID_1_);}
	.st12{fill:url(#SVGID_2_);}
	.st13{fill:url(#SVGID_3_);}
	.st14{fill:url(#SVGID_4_);}
	.st15{fill:url(#SVGID_5_);}
	.st16{fill:url(#SVGID_6_);}
	.st17{fill:url(#SVGID_7_);}
	.st18{fill:url(#SVGID_8_);}
	.st19{fill:url(#SVGID_9_);}
	.st20{fill:url(#SVGID_10_);}
	.st21{fill:url(#SVGID_11_);}
	.st22{fill:url(#SVGID_12_);}
	.st23{fill:#EAEAE8;}
	.st24{fill:#999999;}
	.st25{fill:#7F1E1B;}
	.st26{fill:#B3B3B3;}
	.st27{fill:#8C8C8C;}
	.st28{fill:#303030;}
	.st29{fill:#1A1A1A;}
	.st30{fill:#4A4A4A;}
	.st31{fill:#515251;}
	.st32{fill:#72706D;}
	.st33{fill:#FFFFFF;}
	.st34{fill:#E6E6E6;}
	.st35{fill:#333333;}
	.st36{fill:#156A14;}
	.st37{fill:#003A00;}
	.st38{fill:#E9E5D8;}
	.st39{fill:#D4C78E;}
	.st40{fill:none;stroke:#FFFFFF;stroke-width:2;stroke-miterlimit:10;}
	.st41{fill:#868686;}
	.st42{fill:#70A370;}
	.st43{opacity:0.9;fill:#C9C9C9;}
	.st44{opacity:0.7;fill:#72706D;}
	.st45{fill:#1F7A34;}
	.st46{fill:#95936D;}
	.st47{fill:#4C0A0B;}
	.st48{fill:#65090C;}
	.st49{fill:#84121A;}
	.st50{fill:#D60918;}
	.st51{fill:#9D946D;}
	.st52{fill:#FEFFFF;}
	.st53{fill:#2F3332;}
	.st54{fill:#434343;}
	.st55{opacity:0.6;fill:#1A1A1A;}
	.st56{opacity:0.5;fill:#739729;}
	.st57{fill:#87AD34;}
	.st58{fill:none;stroke:#DFB678;stroke-miterlimit:10;}
	.st59{fill:#8BBF39;}
	.st60{fill:#DFB678;}
	.st61{fill:none;stroke:#DD601E;stroke-width:7;stroke-miterlimit:10;}
	.st62{fill:none;stroke:#FAF42E;stroke-width:7;stroke-miterlimit:10;}
	.st63{fill:none;stroke:#2F2E2C;stroke-width:7;stroke-miterlimit:10;}
	.st64{fill:none;stroke:#B21810;stroke-width:7;stroke-miterlimit:10;}
	.st65{fill:url(#SVGID_13_);}
	.st66{fill:url(#SVGID_14_);}
	.st67{fill:url(#SVGID_15_);}
	.st68{fill:url(#SVGID_16_);}
	.st69{fill:url(#SVGID_17_);}
	.st70{fill:url(#SVGID_18_);}
	.st71{fill:url(#SVGID_19_);}
	.st72{fill:url(#SVGID_20_);}
	.st73{fill:url(#SVGID_21_);}
	.st74{fill:url(#SVGID_22_);}
	.st75{fill:url(#SVGID_23_);}
	.st76{fill:url(#SVGID_24_);}
	.st77{font-family:'VisitorTT1BRK';}
	.st78{font-size:15.8117px;}
	.st79{fill:#890F0C;}
	.st80{fill:#AF481B;}
	.st81{fill:#339E91;}
	.st82{fill:#C4B820;}
	.st83{fill:#30AA29;}
	.st84{fill:#891512;}
</style>
<g id="Camada_1">
</g>
<g id="Camada_2">
	<g>
		<path class="st7" d="M66.6,127.1h568.2l15,14.3v102.2L672,266v293.9l-22.2,22.6v13c0,5-4.1,9.1-9.1,9.1H65.8
			c-4.7,0-8.4-3.8-8.4-8.4V136.3C57.4,131.2,61.5,127.1,66.6,127.1z"/>
		<g>
			<g>
				<rect x="214.6" y="138.8" class="st8" width="227.2" height="22.1"/>
				<g>
					<g>
						<rect x="218.7" y="142.4" class="st9" width="12.9" height="14.4"/>
						<rect x="221.1" y="144.6" class="st10" width="8.1" height="10.1"/>
					</g>
					<g>
						<rect x="241.5" y="142.4" class="st9" width="12.9" height="14.4"/>
						<rect x="243.9" y="144.6" class="st10" width="8.1" height="10.1"/>
					</g>
					<g>
						<rect x="264.3" y="142.4" class="st9" width="12.9" height="14.4"/>
						<rect x="266.6" y="144.6" class="st10" width="8.1" height="10.1"/>
					</g>
					<g>
						<rect x="287" y="142.4" class="st9" width="12.9" height="14.4"/>
						<rect x="289.4" y="144.6" class="st10" width="8.1" height="10.1"/>
					</g>
					<g>
						<rect x="309.8" y="142.4" class="st9" width="12.9" height="14.4"/>
						<rect x="312.2" y="144.6" class="st10" width="8.1" height="10.1"/>
					</g>
					<g>
						<rect x="332.6" y="142.4" class="st9" width="12.9" height="14.4"/>
						<rect x="334.9" y="144.6" class="st10" width="8.1" height="10.1"/>
					</g>
					<g>
						<rect x="355.3" y="142.4" class="st9" width="12.9" height="14.4"/>
						<rect x="357.7" y="144.6" class="st10" width="8.1" height="10.1"/>
					</g>
					<g>
						<rect x="378.1" y="142.4" class="st9" width="12.9" height="14.4"/>
						<rect x="380.4" y="144.6" class="st10" width="8.1" height="10.1"/>
					</g>
					<g>
						<rect x="400.8" y="142.4" class="st9" width="12.9" height="14.4"/>
						<rect x="403.2" y="144.6" class="st10" width="8.1" height="10.1"/>
					</g>
					<g>
						<rect x="423.6" y="142.4" class="st9" width="12.9" height="14.4"/>
						<rect x="426" y="144.6" class="st10" width="8.1" height="10.1"/>
					</g>
				</g>
			</g>
			<g>
				<rect x="456.1" y="138.8" class="st8" width="181.9" height="22.1"/>
				<g>
					<g>
						<rect x="460.8" y="142.4" class="st9" width="12.9" height="14.4"/>
						<rect x="463.1" y="144.6" class="st10" width="8.1" height="10.1"/>
					</g>
					<g>
						<rect x="483.5" y="142.4" class="st9" width="12.9" height="14.4"/>
						<rect x="485.9" y="144.6" class="st10" width="8.1" height="10.1"/>
					</g>
					<g>
						<rect x="506.3" y="142.4" class="st9" width="12.9" height="14.4"/>
						<rect x="508.7" y="144.6" class="st10" width="8.1" height="10.1"/>
					</g>
					<g>
						<rect x="529.1" y="142.4" class="st9" width="12.9" height="14.4"/>
						<rect x="531.4" y="144.6" class="st10" width="8.1" height="10.1"/>
					</g>
					<g>
						<rect x="551.8" y="142.4" class="st9" width="12.9" height="14.4"/>
						<rect x="554.2" y="144.6" class="st10" width="8.1" height="10.1"/>
					</g>
					<g>
						<rect x="574.6" y="142.4" class="st9" width="12.9" height="14.4"/>
						<rect x="577" y="144.6" class="st10" width="8.1" height="10.1"/>
					</g>
					<g>
						<rect x="597.4" y="142.4" class="st9" width="12.9" height="14.4"/>
						<rect x="599.7" y="144.6" class="st10" width="8.1" height="10.1"/>
					</g>
					<g>
						<rect x="620.1" y="142.4" class="st9" width="12.9" height="14.4"/>
						<rect x="622.5" y="144.6" class="st10" width="8.1" height="10.1"/>
					</g>
				</g>
			</g>
		</g>
		<g>
			<g>
				<g>
					<path class="st8" d="M616.6,337.5v-10.6c0-3.2,2.6-5.7,5.7-5.7h33.3c3.2,0,5.7,2.6,5.7,5.7v10.6c0,3.2-2.6,5.7-5.7,5.7h-33.3
						C619.2,343.2,616.6,340.6,616.6,337.5z"/>
					<g>
						<g>
							
								<radialGradient id="SVGID_1_" cx="-120.2671" cy="-1815.0583" r="4.4637" gradientTransform="matrix(6.123234e-17 1 -1 6.123234e-17 -1188.0972 452.4445)" gradientUnits="userSpaceOnUse">
								<stop  offset="0" style="stop-color:#AB9468"/>
								<stop  offset="0.7335" style="stop-color:#978C67"/>
								<stop  offset="1" style="stop-color:#8F8867"/>
							</radialGradient>
							<polygon class="st11" points="622.5,336.6 622.5,327.7 631.4,327.7 631.4,336.6 							"/>
						</g>
						<g>
							
								<radialGradient id="SVGID_2_" cx="-120.2671" cy="-1837.9545" r="4.4637" gradientTransform="matrix(6.123234e-17 1 -1 6.123234e-17 -1188.0972 452.4445)" gradientUnits="userSpaceOnUse">
								<stop  offset="0" style="stop-color:#AB9468"/>
								<stop  offset="0.7335" style="stop-color:#978C67"/>
								<stop  offset="1" style="stop-color:#8F8867"/>
							</radialGradient>
							<polygon class="st12" points="645.4,336.6 645.4,327.7 654.3,327.7 654.3,336.6 							"/>
						</g>
					</g>
				</g>
				<g>
					<path class="st8" d="M616.6,360.4v-10.6c0-3.2,2.6-5.7,5.7-5.7h33.3c3.2,0,5.7,2.6,5.7,5.7v10.6c0,3.2-2.6,5.7-5.7,5.7h-33.3
						C619.2,366.1,616.6,363.5,616.6,360.4z"/>
					<g>
						<g>
							
								<radialGradient id="SVGID_3_" cx="-97.3461" cy="-1837.9545" r="4.4637" gradientTransform="matrix(6.123234e-17 1 -1 6.123234e-17 -1188.0972 452.4445)" gradientUnits="userSpaceOnUse">
								<stop  offset="0" style="stop-color:#AB9468"/>
								<stop  offset="0.7335" style="stop-color:#978C67"/>
								<stop  offset="1" style="stop-color:#8F8867"/>
							</radialGradient>
							<polygon class="st13" points="645.4,359.6 645.4,350.6 654.3,350.6 654.3,359.6 							"/>
						</g>
						<g>
							
								<radialGradient id="SVGID_4_" cx="-97.3461" cy="-1815.0583" r="4.4637" gradientTransform="matrix(6.123234e-17 1 -1 6.123234e-17 -1188.0972 452.4445)" gradientUnits="userSpaceOnUse">
								<stop  offset="0" style="stop-color:#AB9468"/>
								<stop  offset="0.7335" style="stop-color:#978C67"/>
								<stop  offset="1" style="stop-color:#8F8867"/>
							</radialGradient>
							<polygon class="st14" points="622.5,359.6 622.5,350.6 631.4,350.6 631.4,359.6 							"/>
						</g>
					</g>
				</g>
				<g>
					<path class="st8" d="M616.6,383.3v-10.6c0-3.2,2.6-5.7,5.7-5.7h33.3c3.2,0,5.7,2.6,5.7,5.7v10.6c0,3.2-2.6,5.7-5.7,5.7h-33.3
						C619.2,389,616.6,386.5,616.6,383.3z"/>
					<g>
						<g>
							
								<radialGradient id="SVGID_5_" cx="-74.4251" cy="-1837.9545" r="4.4637" gradientTransform="matrix(6.123234e-17 1 -1 6.123234e-17 -1188.0972 452.4445)" gradientUnits="userSpaceOnUse">
								<stop  offset="0" style="stop-color:#AB9468"/>
								<stop  offset="0.7335" style="stop-color:#978C67"/>
								<stop  offset="1" style="stop-color:#8F8867"/>
							</radialGradient>
							<polygon class="st15" points="645.4,382.5 645.4,373.6 654.3,373.6 654.3,382.5 							"/>
						</g>
						<g>
							
								<radialGradient id="SVGID_6_" cx="-74.4251" cy="-1815.0583" r="4.4637" gradientTransform="matrix(6.123234e-17 1 -1 6.123234e-17 -1188.0972 452.4445)" gradientUnits="userSpaceOnUse">
								<stop  offset="0" style="stop-color:#AB9468"/>
								<stop  offset="0.7335" style="stop-color:#978C67"/>
								<stop  offset="1" style="stop-color:#8F8867"/>
							</radialGradient>
							<polygon class="st16" points="622.5,382.5 622.5,373.6 631.4,373.6 631.4,382.5 							"/>
						</g>
					</g>
				</g>
			</g>
			<g>
				<g>
					<path class="st8" d="M238.7,168.9h10.6c3.2,0,5.7,2.6,5.7,5.7V208c0,3.2-2.6,5.7-5.7,5.7h-10.6c-3.2,0-5.7-2.6-5.7-5.7v-33.3
						C233,171.5,235.6,168.9,238.7,168.9z"/>
					<g>
						<g>
							
								<radialGradient id="SVGID_7_" cx="-2335.1306" cy="-701.3996" r="4.4637" gradientTransform="matrix(-1 0 0 -1 -2091.1042 -522.1318)" gradientUnits="userSpaceOnUse">
								<stop  offset="0" style="stop-color:#AB9468"/>
								<stop  offset="0.7335" style="stop-color:#978C67"/>
								<stop  offset="1" style="stop-color:#8F8867"/>
							</radialGradient>
							<polygon class="st17" points="239.6,174.8 248.5,174.8 248.5,183.7 239.6,183.7 							"/>
						</g>
						<g>
							
								<radialGradient id="SVGID_8_" cx="-2335.1306" cy="-724.2958" r="4.4637" gradientTransform="matrix(-1 0 0 -1 -2091.1042 -522.1318)" gradientUnits="userSpaceOnUse">
								<stop  offset="0" style="stop-color:#AB9468"/>
								<stop  offset="0.7335" style="stop-color:#978C67"/>
								<stop  offset="1" style="stop-color:#8F8867"/>
							</radialGradient>
							<polygon class="st18" points="239.6,197.7 248.5,197.7 248.5,206.6 239.6,206.6 							"/>
						</g>
					</g>
				</g>
				<g>
					<path class="st8" d="M215.8,168.9h10.6c3.2,0,5.7,2.6,5.7,5.7V208c0,3.2-2.6,5.7-5.7,5.7h-10.6c-3.2,0-5.7-2.6-5.7-5.7v-33.3
						C210.1,171.5,212.7,168.9,215.8,168.9z"/>
					<g>
						<g>
							
								<radialGradient id="SVGID_9_" cx="-2312.2095" cy="-724.2958" r="4.4637" gradientTransform="matrix(-1 0 0 -1 -2091.1042 -522.1318)" gradientUnits="userSpaceOnUse">
								<stop  offset="0" style="stop-color:#AB9468"/>
								<stop  offset="0.7335" style="stop-color:#978C67"/>
								<stop  offset="1" style="stop-color:#8F8867"/>
							</radialGradient>
							<polygon class="st19" points="216.6,197.7 225.6,197.7 225.6,206.6 216.6,206.6 							"/>
						</g>
						<g>
							
								<radialGradient id="SVGID_10_" cx="-2312.2095" cy="-701.3996" r="4.4637" gradientTransform="matrix(-1 0 0 -1 -2091.1042 -522.1318)" gradientUnits="userSpaceOnUse">
								<stop  offset="0" style="stop-color:#AB9468"/>
								<stop  offset="0.7335" style="stop-color:#978C67"/>
								<stop  offset="1" style="stop-color:#8F8867"/>
							</radialGradient>
							<polygon class="st20" points="216.6,174.8 225.6,174.8 225.6,183.7 216.6,183.7 							"/>
						</g>
					</g>
				</g>
				<g>
					<path class="st8" d="M192.9,168.9h10.6c3.2,0,5.7,2.6,5.7,5.7V208c0,3.2-2.6,5.7-5.7,5.7h-10.6c-3.2,0-5.7-2.6-5.7-5.7v-33.3
						C187.2,171.5,189.7,168.9,192.9,168.9z"/>
					<g>
						<g>
							
								<radialGradient id="SVGID_11_" cx="-2289.2886" cy="-724.2958" r="4.4637" gradientTransform="matrix(-1 0 0 -1 -2091.1042 -522.1318)" gradientUnits="userSpaceOnUse">
								<stop  offset="0" style="stop-color:#AB9468"/>
								<stop  offset="0.7335" style="stop-color:#978C67"/>
								<stop  offset="1" style="stop-color:#8F8867"/>
							</radialGradient>
							<polygon class="st21" points="193.7,197.7 202.6,197.7 202.6,206.6 193.7,206.6 							"/>
						</g>
						<g>
							
								<radialGradient id="SVGID_12_" cx="-2289.2886" cy="-701.3996" r="4.4637" gradientTransform="matrix(-1 0 0 -1 -2091.1042 -522.1318)" gradientUnits="userSpaceOnUse">
								<stop  offset="0" style="stop-color:#AB9468"/>
								<stop  offset="0.7335" style="stop-color:#978C67"/>
								<stop  offset="1" style="stop-color:#8F8867"/>
							</radialGradient>
							<polygon class="st22" points="193.7,174.8 202.6,174.8 202.6,183.7 193.7,183.7 							"/>
						</g>
					</g>
				</g>
			</g>
		</g>
		<g>
			<rect x="69.5" y="137.5" class="st23" width="9.7" height="6.4"/>
			<rect x="69.5" y="176" class="st23" width="9.7" height="6.4"/>
			<rect x="142.4" y="176" class="st23" width="9.7" height="6.4"/>
			<rect x="142.4" y="137.5" class="st23" width="9.7" height="6.4"/>
			<rect x="69.5" y="154.8" class="st23" width="9.7" height="9.7"/>
			<polygon class="st24" points="78.3,187.6 78.3,131.3 98.2,131.3 98.2,133.1 123.5,133.1 123.5,131.3 142.9,131.3 142.9,188.5 
				123.8,188.5 123.8,187.3 97.4,187.3 97.4,188.5 78.3,188.5 			"/>
			<path class="st25" d="M107.2,144.5h6.9c6.6,0,12,5.4,12,12v6.9c0,6.6-5.4,12-12,12h-6.9c-6.6,0-12-5.4-12-12v-6.9
				C95.2,149.9,100.6,144.5,107.2,144.5z"/>
		</g>
		<text transform="matrix(1 0 0 1 88.6296 201.1045)" class="st33 st77 st78">RESET</text>
		<g>
			<rect x="57.4" y="200.3" class="st26" width="13.1" height="14"/>
			<rect x="57.4" y="314" class="st26" width="13.1" height="14"/>
			<rect x="0.2" y="213" class="st26" width="140.7" height="101"/>
			<rect x="0.2" y="213" class="st24" width="23.8" height="101"/>
			<rect x="0.2" y="213" class="st27" width="140.7" height="6.2"/>
		</g>
		<rect x="141.2" y="423.7" class="st24" width="15.1" height="10.1"/>
		<g>
			<rect x="141.2" y="444.5" class="st24" width="15.1" height="10.1"/>
			<rect x="141.2" y="465.3" class="st24" width="15.1" height="10.1"/>
			<rect x="93.1" y="433.8" class="st24" width="18.7" height="31.5"/>
			<rect x="110.1" y="419.5" class="st28" width="32.1" height="60.6"/>
			<polygon class="st29" points="109.7,419.5 109.7,480.1 142.2,480.1 142.2,419.5 140.3,419.5 140.3,477.1 111.9,477.1 
				111.9,419.5 			"/>
		</g>
		<g>
			<rect x="65.8" y="497.8" class="st29" width="93.9" height="74.8"/>
			<rect x="42.2" y="495.5" class="st29" width="23.5" height="79.2"/>
			<rect x="66.2" y="499.6" class="st30" width="92" height="5.5"/>
			<rect x="44" y="496.8" class="st30" width="20" height="2.8"/>
			<rect x="66.2" y="565.4" width="92" height="5.5"/>
			<rect x="44" y="570.9" width="20" height="2.8"/>
			<path class="st10" d="M65.8,511.9v47.9h38.7c13.3,0,24.1-10.7,24.1-23.9v0c0-13.2-10.8-23.9-24.1-23.9H65.8z"/>
			<rect x="159.7" y="517.9" class="st31" width="3.4" height="35"/>
			<rect x="163.1" y="526" class="st32" width="1.7" height="18.7"/>
		</g>
		<g>
			<circle class="st33" cx="181.4" cy="582.6" r="14.5"/>
			<circle class="st33" cx="649.1" cy="536.8" r="14.5"/>
			<circle class="st33" cx="649.1" cy="287.2" r="14.5"/>
			<circle class="st33" cx="193.6" cy="149.6" r="14.5"/>
		</g>
		<g>
			<rect x="283.5" y="490.4" class="st34" width="5.1" height="3.7"/>
			<rect x="283.5" y="552.4" class="st34" width="5.1" height="3.7"/>
			<path class="st35" d="M308.8,552.4h-45.5c-3.6,0-6.5-2.9-6.5-6.5V506l12.3-11.6h34.6l11.6,11.6v39.9
				C315.2,549.5,312.3,552.4,308.8,552.4z"/>
			<circle class="st34" cx="286" cy="523.4" r="26.6"/>
			<path d="M307.7,538.7c0,0-6.6,11.3-21.8,11.3c-15,0-21.8-11.3-21.8-11.3L307.7,538.7z"/>
		</g>
		<g>
			<rect x="219.5" y="490.4" class="st34" width="5.1" height="3.7"/>
			<rect x="219.5" y="552.4" class="st34" width="5.1" height="3.7"/>
			<path class="st35" d="M244.7,552.4h-45.5c-3.6,0-6.5-2.9-6.5-6.5V506l12.3-11.6h34.6l11.6,11.6v39.9
				C251.1,549.5,248.3,552.4,244.7,552.4z"/>
			<circle class="st34" cx="221.9" cy="523.4" r="26.6"/>
			<path d="M243.7,538.7c0,0-6.6,11.3-21.8,11.3c-15,0-21.8-11.3-21.8-11.3L243.7,538.7z"/>
		</g>
		<g>
			<rect x="213.9" y="272.8" class="st35" width="43.8" height="43.8"/>
			<rect x="307.7" y="433.8" class="st35" width="330.6" height="48.5"/>
		</g>
		<g>
			<g>
				<rect x="296.7" y="571.5" class="st8" width="181.9" height="22.1"/>
				<g>
					<g>
						<rect x="301.4" y="575.1" class="st9" width="12.9" height="14.4"/>
						<rect x="303.8" y="577.3" class="st10" width="8.1" height="10.1"/>
					</g>
					<g>
						<rect x="324.2" y="575.1" class="st9" width="12.9" height="14.4"/>
						<rect x="326.5" y="577.3" class="st10" width="8.1" height="10.1"/>
					</g>
					<g>
						<rect x="346.9" y="575.1" class="st9" width="12.9" height="14.4"/>
						<rect x="349.3" y="577.3" class="st10" width="8.1" height="10.1"/>
					</g>
					<g>
						<rect x="369.7" y="575.1" class="st9" width="12.9" height="14.4"/>
						<rect x="372" y="577.3" class="st10" width="8.1" height="10.1"/>
					</g>
					<g>
						<rect x="392.4" y="575.1" class="st9" width="12.9" height="14.4"/>
						<rect x="394.8" y="577.3" class="st10" width="8.1" height="10.1"/>
					</g>
					<g>
						<rect x="415.2" y="575.1" class="st9" width="12.9" height="14.4"/>
						<rect x="417.6" y="577.3" class="st36" width="8.1" height="10.1"/>
					</g>
					<g>
						<rect x="438" y="575.1" class="st9" width="12.9" height="14.4"/>
						<rect x="440.3" y="577.3" class="st37" width="8.1" height="10.1"/>
					</g>
					<g>
						<rect x="460.7" y="575.1" class="st9" width="12.9" height="14.4"/>
						<rect x="463.1" y="577.3" class="st10" width="8.1" height="10.1"/>
					</g>
				</g>
			</g>
			<g>
				<rect x="501.6" y="571.5" class="st8" width="136.8" height="22.1"/>
				<g>
					<g>
						<rect x="506.3" y="575.1" class="st9" width="12.9" height="14.4"/>
						<rect x="508.7" y="577.3" class="st10" width="8.1" height="10.1"/>
					</g>
					<g>
						<rect x="529.1" y="575.1" class="st9" width="12.9" height="14.4"/>
						<rect x="531.4" y="577.3" class="st10" width="8.1" height="10.1"/>
					</g>
					<g>
						<rect x="551.8" y="575.1" class="st9" width="12.9" height="14.4"/>
						<rect x="554.2" y="577.3" class="st10" width="8.1" height="10.1"/>
					</g>
					<g>
						<rect x="574.6" y="575.1" class="st9" width="12.9" height="14.4"/>
						<rect x="577" y="577.3" class="st10" width="8.1" height="10.1"/>
					</g>
					<g>
						<rect x="597.4" y="575.1" class="st9" width="12.9" height="14.4"/>
						<rect x="599.7" y="577.3" class="st10" width="8.1" height="10.1"/>
					</g>
					<g>
						<rect x="620.1" y="575.1" class="st9" width="12.9" height="14.4"/>
						<rect x="622.5" y="577.3" class="st10" width="8.1" height="10.1"/>
					</g>
				</g>
			</g>
		</g>
		<g>
			<g>
				<rect x="297.6" y="229.4" class="st38" width="17.9" height="11.4"/>
				<rect x="315.4" y="229.4" class="st39" width="2.5" height="11.4"/>
				<rect x="295.1" y="229.4" class="st39" width="2.5" height="11.4"/>
			</g>
			<g>
				<rect x="580.3" y="272.3" class="st38" width="17.9" height="11.4"/>
				<rect x="598.2" y="272.3" class="st39" width="2.5" height="11.4"/>
				<rect x="577.8" y="272.3" class="st39" width="2.5" height="11.4"/>
			</g>
			<g>
				<rect x="297.6" y="271.2" class="st38" width="17.9" height="11.4"/>
				<rect x="315.4" y="271.2" class="st39" width="2.5" height="11.4"/>
				<rect x="295.1" y="271.2" class="st39" width="2.5" height="11.4"/>
			</g>
			<g>
				<rect x="297.6" y="292.2" class="st38" width="17.9" height="11.4"/>
				<rect x="315.4" y="292.2" class="st39" width="2.5" height="11.4"/>
				<rect x="295.1" y="292.2" class="st39" width="2.5" height="11.4"/>
			</g>
		</g>
		<g>
			<line class="st40" x1="363" y1="526.4" x2="478.6" y2="526.4"/>
			<line class="st40" x1="292.4" y1="219.2" x2="631.4" y2="219.2"/>
			<line class="st40" x1="506.2" y1="526.4" x2="621.8" y2="526.4"/>
		</g>
		<g>
			<g>
				<g>
					<rect x="289.4" y="69.5" class="st41" width="6.6" height="71"/>
					<rect x="289.4" y="134.7" class="st42" width="6.6" height="5.8"/>
				</g>
				<g>
					<rect x="312.5" y="134.7" class="st42" width="6.6" height="5.8"/>
					<polygon class="st41" points="319.1,134.7 312.5,134.7 312.5,93.5 301.4,82 301.4,69.5 308.4,69.5 308.4,79.5 319.3,90.4 					
						"/>
				</g>
			</g>
			<g>
				<path class="st32" d="M278.8,59.9v6.5c0,0,6.1,7.2,17.7,7.6s18.4-2.8,18.4-2.8s9.9-4.6,11.3-14.2s-3.8-16.5-3.8-16.5l-3.5,7.6
					l-4.7,9.2c0,0-9.9,3.5-10.4,3.5s-10.1,0-11.8,0S278.8,59.9,278.8,59.9z"/>
				<path class="st41" d="M278.8,59.9v-38c0-11.9,9.7-21.6,21.6-21.6h0c11.9,0,21.6,9.7,21.6,21.6l0.4,20.7c0,0,1.4,14.3-6.7,20.3
					c0,0-2.1,2.3-7.4,3.8c-5.3,1.5-18.5,0.4-23.1-2.1C280.7,62,278.8,59.9,278.8,59.9z"/>
			</g>
			<path class="st43" d="M282.3,60.1V20.5c0,0-0.8-9.3,8.2-13.4l3.8,4.6c0,0-6.1,1.4-6,8c0.1,8.5,0,42.7,0,42.7l-2.1,2.5v6.6
				c0,0-5.3-1.5-6-3.8v-5.9L282.3,60.1z"/>
			<path class="st43" d="M305.4,4.1c0,0,7-0.3,9.6,6.2l-2.6,2.8c0,0-3.5-4.3-7.5-4.5V4.1L305.4,4.1z"/>
			<polygon class="st44" points="288.3,28 310,28 296.5,41.5 288.3,41.5 			"/>
			<path class="st44" d="M301.4,41.5L315,28h0.9v22.3c0,0-2.1,0.1-2,0c0.1-0.1,0-8.8,0-8.8H301.4z"/>
		</g>
		<g>
			<g>
				<path class="st33" d="M435.1,251.8c0-12.2-10.3-22.2-23-22.2c-1.2,0-2.4,0.1-3.5,0.2c-9.8,1.4-16.4,8.5-20.1,13.9
					c-3.7-5.4-10.3-12.5-20.1-13.9c-1.2-0.2-2.4-0.2-3.5-0.2c-12.7,0-23,9.9-23,22.2c0,12.2,10.3,22.2,23,22.2
					c1.2,0,2.4-0.1,3.5-0.2c9.8-1.4,16.4-8.5,20.1-13.9c3.7,5.4,10.3,12.5,20.1,13.9c1.2,0.2,2.4,0.2,3.5,0.2
					C424.8,274,435.1,264.1,435.1,251.8 M367.3,266c-0.8,0.1-1.6,0.2-2.4,0.2c-8.3,0-15.1-6.4-15.1-14.3c0-7.9,6.8-14.3,15.1-14.3
					c0.8,0,1.6,0.1,2.4,0.2c9.3,1.3,15,10.5,16.9,14.1C382.2,255.5,376.6,264.7,367.3,266 M392.9,251.8c1.9-3.7,7.6-12.8,16.9-14.1
					c0.8-0.1,1.6-0.2,2.4-0.2c8.3,0,15.1,6.4,15.1,14.3c0,7.9-6.8,14.3-15.1,14.3c-0.8,0-1.6-0.1-2.4-0.2
					C400.5,264.7,394.8,255.5,392.9,251.8"/>
				<rect x="358.5" y="249.7" class="st33" width="13.8" height="4.4"/>
				<polygon class="st33" points="413.7,254.1 418.4,254.1 418.4,249.7 413.7,249.7 413.7,245 409.2,245 409.2,249.7 404.6,249.7 
					404.6,254.1 409.2,254.1 409.2,258.8 413.7,258.8 				"/>
				<path class="st33" d="M348.4,280.6l-4,12.8h3.3l0.7-2.6h3.7l0.7,2.6h3.4l-4.1-12.8H348.4z M348.9,288.3l1.2-4.7l1.3,4.7H348.9z"
					/>
				<path class="st33" d="M368.2,284.9c0-2.5-1.3-4.3-4.9-4.3h-5.2v12.8h3.2v-4.1h1.6l1.9,4.1h3.8l-2.5-4.7
					C367.4,288,368.2,286.6,368.2,284.9 M363,286.8h-1.7v-3.6h1.6c1.5,0,1.9,0.6,1.9,1.7C364.8,286.3,364.1,286.8,363,286.8"/>
				<path class="st33" d="M374.9,280.6h-4.2v12.8h4.2c5.4,0,6.4-3.5,6.4-6.5C381.3,282.9,379.7,280.6,374.9,280.6 M375.1,290.8h-1.2
					v-7.6h0.9c2.8,0,3.1,1.3,3.1,3.8C377.9,289.2,377.7,290.8,375.1,290.8"/>
				<path class="st33" d="M390.7,288.4c0,2-0.5,2.6-2,2.6c-1.2,0-2-0.5-2-2.6v-7.8h-3.2v8.4c0,3.9,2.8,4.6,5,4.6
					c2.3,0,5.2-0.8,5.2-4.6v-8.4h-3.1V288.4L390.7,288.4z"/>
				<polygon class="st33" points="396.6,283.2 399.9,283.2 399.9,290.8 396.6,290.8 396.6,293.4 406.5,293.4 406.5,290.8 
					403.1,290.8 403.1,283.2 406.5,283.2 406.5,280.6 396.6,280.6 				"/>
				<polygon class="st33" points="416.7,288.3 412.5,280.6 409.1,280.6 409.1,293.4 412.1,293.4 412.1,285.2 416.4,293.4 
					419.7,293.4 419.7,280.6 416.7,280.6 				"/>
				<path class="st33" d="M427.1,280.4c-3.9,0-5.4,2.9-5.4,6.7c0,4.2,1.7,6.5,5.4,6.5c4.1,0,5.5-2.9,5.5-6.6
					C432.6,282.1,430.8,280.4,427.1,280.4 M427.2,291c-1.8,0-2-1.3-2-3.9c0-3.1,0.3-4.1,2-4.1c1.9,0,2.1,0.9,2.1,4
					C429.3,290,429,291,427.2,291"/>
				<g>
					<path class="st33" d="M435.1,231c-0.1-0.3-0.3-0.6-0.5-0.8c-0.2-0.2-0.5-0.4-0.8-0.5c-0.3-0.1-0.6-0.2-1-0.2
						c-0.3,0-0.7,0.1-1,0.2c-0.3,0.1-0.6,0.3-0.8,0.5c-0.2,0.2-0.4,0.5-0.5,0.8c-0.1,0.3-0.2,0.6-0.2,1c0,0.3,0.1,0.7,0.2,1
						c0.1,0.3,0.3,0.6,0.5,0.8c0.2,0.2,0.5,0.4,0.8,0.5c0.3,0.1,0.6,0.2,1,0.2c0.3,0,0.7-0.1,1-0.2c0.3-0.1,0.5-0.3,0.8-0.5
						c0.2-0.2,0.4-0.5,0.5-0.8c0.1-0.3,0.2-0.6,0.2-1C435.3,231.7,435.2,231.3,435.1,231z M434.5,232.8c-0.1,0.2-0.2,0.4-0.4,0.6
						c-0.2,0.2-0.4,0.3-0.6,0.4c-0.2,0.1-0.5,0.2-0.7,0.2c-0.3,0-0.5-0.1-0.7-0.2c-0.2-0.1-0.4-0.2-0.6-0.4
						c-0.2-0.2-0.3-0.4-0.4-0.6c-0.1-0.2-0.1-0.5-0.1-0.8c0-0.3,0-0.5,0.1-0.8c0.1-0.2,0.2-0.4,0.4-0.6c0.2-0.2,0.4-0.3,0.6-0.4
						c0.2-0.1,0.5-0.1,0.7-0.1c0.3,0,0.5,0,0.7,0.1c0.2,0.1,0.4,0.2,0.6,0.4c0.2,0.2,0.3,0.4,0.4,0.6c0.1,0.2,0.1,0.5,0.1,0.8
						C434.7,232.3,434.6,232.5,434.5,232.8z"/>
					<path class="st33" d="M433.4,232.3c0.1-0.1,0.2-0.2,0.3-0.3c0.1-0.1,0.1-0.3,0.1-0.4c0-0.2-0.1-0.4-0.2-0.6
						c-0.2-0.2-0.4-0.3-0.8-0.3c-0.1,0-0.3,0-0.4,0c-0.1,0-0.2,0-0.3,0v2.4h0.6v-0.8h0.2l0.4,0.8h0.7L433.4,232.3z M432.8,231.9
						c-0.1,0-0.1,0-0.2,0v-0.7c0,0,0.1,0,0.2,0c0.3,0,0.4,0.1,0.4,0.3C433.2,231.8,433,231.9,432.8,231.9z"/>
				</g>
			</g>
		</g>
	</g>
	<g>
		<rect x="801.1" y="630.6" class="st60" width="25.5" height="86.5"/>
		<ellipse class="st59" cx="820.9" cy="649.8" rx="5.2" ry="6.9"/>
		<ellipse class="st59" cx="820.9" cy="668.8" rx="5.2" ry="6.9"/>
		<ellipse class="st59" cx="820.9" cy="687.8" rx="5.2" ry="6.9"/>
		<ellipse class="st59" cx="820.9" cy="706.8" rx="5.2" ry="6.9"/>
		<polyline class="st61" points="626.6,582.3 626.6,649.8 820.9,649.8 		"/>
		<polyline class="st62" points="603.8,582.3 603.8,668.8 820.9,668.8 		"/>
		<polyline class="st63" points="421.6,582.3 421.6,687.8 820.9,687.8 		"/>
		<polyline class="st64" points="398.9,582.3 398.9,706.8 820.9,706.8 		"/>
	</g>
</g>
</svg>
