<?xml version="1.0" encoding="utf-8"?>
<!-- Generator: Adobe Illustrator 22.0.1, SVG Export Plug-In . SVG Version: 6.00 Build 0)  -->
<svg version="1.1" xmlns="http://www.w3.org/2000/svg" xmlns:xlink="http://www.w3.org/1999/xlink" x="0px" y="0px"
	 viewBox="0 0 601 270" style="enable-background:new 0 0 601 270;" xml:space="preserve">
<style type="text/css">
	.st0{fill:#FAF42E;}
	.st1{fill:#2F2E2C;}
	.st2{fill:#48D4C7;}
	.st3{fill:#3CD338;}
	.st4{fill:#B21810;}
	.st5{fill:#11449D;}
	.st6{fill:#DD601E;}
	.st7{fill:#0F7391;}
	.st8{fill:#404040;}
	.st9{fill:#515151;}
	.st10{fill:#232323;}
	.st11{fill:url(#SVGID_1_);}
	.st12{fill:url(#SVGID_2_);}
	.st13{fill:url(#SVGID_3_);}
	.st14{fill:url(#SVGID_4_);}
	.st15{fill:url(#SVGID_5_);}
	.st16{fill:url(#SVGID_6_);}
	.st17{fill:url(#SVGID_7_);}
	.st18{fill:url(#SVGID_8_);}
	.st19{fill:url(#SVGID_9_);}
	.st20{fill:url(#SVGID_10_);}
	.st21{fill:url(#SVGID_11_);}
	.st22{fill:url(#SVGID_12_);}
	.st23{fill:#EAEAE8;}
	.st24{fill:#999999;}
	.st25{fill:#7F1E1B;}
	.st26{fill:#B3B3B3;}
	.st27{fill:#8C8C8C;}
	.st28{fill:#303030;}
	.st29{fill:#1A1A1A;}
	.st30{fill:#4A4A4A;}
	.st31{fill:#515251;}
	.st32{fill:#72706D;}
	.st33{fill:#FFFFFF;}
	.st34{fill:#E6E6E6;}
	.st35{fill:#333333;}
	.st36{fill:#156A14;}
	.st37{fill:#003A00;}
	.st38{fill:#E9E5D8;}
	.st39{fill:#D4C78E;}
	.st40{fill:none;stroke:#FFFFFF;stroke-width:2;stroke-miterlimit:10;}
	.st41{fill:#868686;}
	.st42{fill:#70A370;}
	.st43{opacity:0.9;fill:#C9C9C9;}
	.st44{opacity:0.7;fill:#72706D;}
	.st45{fill:#1F7A34;}
	.st46{fill:#95936D;}
	.st47{fill:#4C0A0B;}
	.st48{fill:#65090C;}
	.st49{fill:#84121A;}
	.st50{fill:#D60918;}
	.st51{fill:#9D946D;}
	.st52{fill:#FEFFFF;}
	.st53{fill:#2F3332;}
	.st54{fill:#434343;}
	.st55{opacity:0.6;fill:#1A1A1A;}
	.st56{opacity:0.5;fill:#739729;}
	.st57{fill:#87AD34;}
	.st58{fill:none;stroke:#DFB678;stroke-miterlimit:10;}
	.st59{fill:#8BBF39;}
	.st60{fill:#DFB678;}
	.st61{fill:none;stroke:#DD601E;stroke-width:7;stroke-miterlimit:10;}
	.st62{fill:none;stroke:#FAF42E;stroke-width:7;stroke-miterlimit:10;}
	.st63{fill:none;stroke:#2F2E2C;stroke-width:7;stroke-miterlimit:10;}
	.st64{fill:none;stroke:#B21810;stroke-width:7;stroke-miterlimit:10;}
	.st65{fill:url(#SVGID_13_);}
	.st66{fill:url(#SVGID_14_);}
	.st67{fill:url(#SVGID_15_);}
	.st68{fill:url(#SVGID_16_);}
	.st69{fill:url(#SVGID_17_);}
	.st70{fill:url(#SVGID_18_);}
	.st71{fill:url(#SVGID_19_);}
	.st72{fill:url(#SVGID_20_);}
	.st73{fill:url(#SVGID_21_);}
	.st74{fill:url(#SVGID_22_);}
	.st75{fill:url(#SVGID_23_);}
	.st76{fill:url(#SVGID_24_);}
	.st77{fill:#890F0C;}
	.st78{fill:#AF481B;}
	.st79{fill:#339E91;}
	.st80{fill:#C4B820;}
	.st81{fill:#30AA29;}
	.st82{fill:#891512;}
</style>
<g id="Camada_1">
</g>
<g id="Camada_2">
	<g>
		<rect class="st45" width="601" height="270"/>
		<g>
			<g>
				<path class="st46" d="M51.3,18L51.3,18c-3.6,0-6.4-2.9-6.4-6.4V0h12.9v11.6C57.8,15.2,54.9,18,51.3,18z"/>
				<circle class="st47" cx="51.3" cy="9.1" r="4.3"/>
				<circle class="st48" cx="51.3" cy="9.1" r="2.8"/>
			</g>
			<g>
				<path class="st46" d="M70.5,18L70.5,18c-3.6,0-6.4-2.9-6.4-6.4V0H77v11.6C77,15.2,74.1,18,70.5,18z"/>
				<circle class="st47" cx="70.5" cy="9.1" r="4.3"/>
				<circle class="st48" cx="70.5" cy="9.1" r="2.8"/>
			</g>
			<g>
				<path class="st46" d="M89.8,18L89.8,18c-3.6,0-6.4-2.9-6.4-6.4V0h12.9v11.6C96.2,15.2,93.3,18,89.8,18z"/>
				<circle class="st47" cx="89.8" cy="9.1" r="4.3"/>
				<circle class="st48" cx="89.8" cy="9.1" r="2.8"/>
			</g>
			<g>
				<path class="st46" d="M109,18L109,18c-3.6,0-6.4-2.9-6.4-6.4V0h12.9v11.6C115.4,15.2,112.5,18,109,18z"/>
				<circle class="st47" cx="109" cy="9.1" r="4.3"/>
				<circle class="st48" cx="109" cy="9.1" r="2.8"/>
			</g>
			<g>
				<path class="st46" d="M128.2,18L128.2,18c-3.6,0-6.4-2.9-6.4-6.4V0h12.9v11.6C134.6,15.2,131.7,18,128.2,18z"/>
				<circle class="st47" cx="128.2" cy="9.1" r="4.3"/>
				<circle class="st48" cx="128.2" cy="9.1" r="2.8"/>
			</g>
			<g>
				<path class="st46" d="M147.4,18L147.4,18c-3.6,0-6.4-2.9-6.4-6.4V0h12.9v11.6C153.8,15.2,150.9,18,147.4,18z"/>
				<circle class="st47" cx="147.4" cy="9.1" r="4.3"/>
				<circle class="st48" cx="147.4" cy="9.1" r="2.8"/>
			</g>
			<g>
				<path class="st46" d="M166.6,18L166.6,18c-3.6,0-6.4-2.9-6.4-6.4V0H173v11.6C173,15.2,170.2,18,166.6,18z"/>
				<circle class="st49" cx="166.6" cy="9.1" r="4.3"/>
				<circle class="st50" cx="166.6" cy="9.1" r="2.8"/>
			</g>
			<g>
				<path class="st46" d="M185.8,18L185.8,18c-3.6,0-6.4-2.9-6.4-6.4V0h12.9v11.6C192.2,15.2,189.4,18,185.8,18z"/>
				<circle class="st47" cx="185.8" cy="9.1" r="4.3"/>
				<circle class="st48" cx="185.8" cy="9.1" r="2.8"/>
			</g>
			<g>
				<path class="st46" d="M205,18L205,18c-3.6,0-6.4-2.9-6.4-6.4V0h12.9v11.6C211.5,15.2,208.6,18,205,18z"/>
				<circle class="st47" cx="205" cy="9.1" r="4.3"/>
				<circle class="st48" cx="205" cy="9.1" r="2.8"/>
			</g>
			<g>
				<path class="st46" d="M224.2,18L224.2,18c-3.6,0-6.4-2.9-6.4-6.4V0h12.9v11.6C230.7,15.2,227.8,18,224.2,18z"/>
				<circle class="st47" cx="224.2" cy="9.1" r="4.3"/>
				<circle class="st48" cx="224.2" cy="9.1" r="2.8"/>
			</g>
			<g>
				<path class="st46" d="M243.4,18L243.4,18c-3.6,0-6.4-2.9-6.4-6.4V0h12.9v11.6C249.9,15.2,247,18,243.4,18z"/>
				<circle class="st47" cx="243.4" cy="9.1" r="4.3"/>
				<circle class="st48" cx="243.4" cy="9.1" r="2.8"/>
			</g>
			<g>
				<path class="st46" d="M262.7,18L262.7,18c-3.6,0-6.4-2.9-6.4-6.4V0h12.9v11.6C269.1,15.2,266.2,18,262.7,18z"/>
				<circle class="st47" cx="262.7" cy="9.1" r="4.3"/>
				<circle class="st48" cx="262.7" cy="9.1" r="2.8"/>
			</g>
			<g>
				<path class="st46" d="M281.9,18L281.9,18c-3.6,0-6.4-2.9-6.4-6.4V0h12.9v11.6C288.3,15.2,285.4,18,281.9,18z"/>
				<circle class="st47" cx="281.9" cy="9.1" r="4.3"/>
				<circle class="st48" cx="281.9" cy="9.1" r="2.8"/>
			</g>
			<g>
				<path class="st46" d="M301.1,18L301.1,18c-3.6,0-6.4-2.9-6.4-6.4V0h12.9v11.6C307.5,15.2,304.6,18,301.1,18z"/>
				<circle class="st47" cx="301.1" cy="9.1" r="4.3"/>
				<circle class="st48" cx="301.1" cy="9.1" r="2.8"/>
			</g>
			<g>
				<path class="st46" d="M320.3,18L320.3,18c-3.6,0-6.4-2.9-6.4-6.4V0h12.9v11.6C326.7,15.2,323.8,18,320.3,18z"/>
				<circle class="st47" cx="320.3" cy="9.1" r="4.3"/>
				<circle class="st48" cx="320.3" cy="9.1" r="2.8"/>
			</g>
			<g>
				<path class="st46" d="M339.5,18L339.5,18c-3.6,0-6.4-2.9-6.4-6.4V0h12.9v11.6C345.9,15.2,343.1,18,339.5,18z"/>
				<circle class="st47" cx="339.5" cy="9.1" r="4.3"/>
				<circle class="st48" cx="339.5" cy="9.1" r="2.8"/>
			</g>
		</g>
		<g>
			<g>
				<circle class="st51" cx="17.3" cy="16.7" r="12.6"/>
				<circle class="st52" cx="17.3" cy="16.7" r="7.3"/>
			</g>
			<g>
				<circle class="st51" cx="17.3" cy="253.1" r="12.6"/>
				<circle class="st52" cx="17.3" cy="253.1" r="7.3"/>
			</g>
			<g>
				<circle class="st51" cx="584.6" cy="16.7" r="12.6"/>
				<circle class="st52" cx="584.6" cy="16.7" r="7.3"/>
			</g>
			<g>
				<circle class="st51" cx="584.6" cy="253.1" r="12.6"/>
				<circle class="st52" cx="584.6" cy="253.1" r="7.3"/>
			</g>
		</g>
		<g>
			<polygon class="st53" points="33,36.7 569.3,36.7 576.4,43.8 576.4,97 574,99.5 574,171.3 576.6,173.9 576.6,227.5 569.5,234.5 
				33,234.5 25.2,226.8 25.2,173.3 28.2,170.2 28.2,98.8 25.2,95.7 25.2,42.5 			"/>
			<g>
				<g>
					<path class="st54" d="M553.3,56H48.7c-2.8,0-5-2.2-5-5v0c0-2.8,2.2-5,5-5h504.7c2.8,0,5,2.2,5,5v0
						C558.3,53.8,556.1,56,553.3,56z"/>
					<path class="st55" d="M43.7,51L43.7,51c0,0-0.3-5,5-5h504.7c5,0,5,5,5,5l0,0C558.3,51,43.6,51,43.7,51z"/>
				</g>
				<g>
					<path class="st54" d="M553.3,224H48.6c-2.8,0-5-2.2-5-5l0,0c0-2.8,2.2-5,5-5h504.7c2.8,0,5,2.2,5,5l0,0
						C558.3,221.8,556,224,553.3,224z"/>
					<path class="st55" d="M43.6,219L43.6,219c0,0-0.3-5,5-5h504.7c5,0,5,5,5,5l0,0C558.2,219,43.6,219,43.6,219z"/>
				</g>
			</g>
			<g>
				<path class="st56" d="M539.9,201.5H62.1c-7.2,0-13.1-5.8-13.1-13.1V85.1C49,77.8,54.8,72,62.1,72h477.9
					c7.2,0,13.1,5.8,13.1,13.1v103.3C553,195.6,547.2,201.5,539.9,201.5z"/>
				<path class="st57" d="M536.2,197.8H66.6c-7.2,0-13.1-5.8-13.1-13.1V85.2c0-7.2,5.8-13.1,13.1-13.1h469.6
					c7.2,0,13.1,5.8,13.1,13.1v99.6C549.3,192,543.4,197.8,536.2,197.8z"/>
			</g>
			<g>
				<rect x="71.2" y="33.9" class="st52" width="43.8" height="2.8"/>
				<rect x="279.2" y="33.9" class="st52" width="43.8" height="2.8"/>
				<rect x="487.2" y="33.9" class="st52" width="43.8" height="2.8"/>
				<rect x="71.2" y="234.5" class="st52" width="43.8" height="2.8"/>
				<rect x="279.2" y="234.5" class="st52" width="43.8" height="2.8"/>
				<rect x="487.2" y="234.5" class="st52" width="43.8" height="2.8"/>
			</g>
		</g>
	</g>
</g>
</svg>
