<?xml version="1.0" encoding="utf-8"?>
<!-- Generator: Adobe Illustrator 22.0.1, SVG Export Plug-In . SVG Version: 6.00 Build 0)  -->
<svg version="1.1" xmlns="http://www.w3.org/2000/svg" xmlns:xlink="http://www.w3.org/1999/xlink" x="0px" y="0px"
	 viewBox="0 0 31.2 193.3" style="enable-background:new 0 0 31.2 193.3;" xml:space="preserve">
<style type="text/css">
	.st0{fill:#FAF42E;}
	.st1{fill:#2F2E2C;}
	.st2{fill:#48D4C7;}
	.st3{fill:#3CD338;}
	.st4{fill:#B21810;}
	.st5{fill:#11449D;}
	.st6{fill:#DD601E;}
	.st7{fill:#0F7391;}
	.st8{fill:#404040;}
	.st9{fill:#515151;}
	.st10{fill:#232323;}
	.st11{fill:url(#SVGID_1_);}
	.st12{fill:url(#SVGID_2_);}
	.st13{fill:url(#SVGID_3_);}
	.st14{fill:url(#SVGID_4_);}
	.st15{fill:url(#SVGID_5_);}
	.st16{fill:url(#SVGID_6_);}
	.st17{fill:url(#SVGID_7_);}
	.st18{fill:url(#SVGID_8_);}
	.st19{fill:url(#SVGID_9_);}
	.st20{fill:url(#SVGID_10_);}
	.st21{fill:url(#SVGID_11_);}
	.st22{fill:url(#SVGID_12_);}
	.st23{fill:#EAEAE8;}
	.st24{fill:#999999;}
	.st25{fill:#7F1E1B;}
	.st26{fill:#B3B3B3;}
	.st27{fill:#8C8C8C;}
	.st28{fill:#303030;}
	.st29{fill:#1A1A1A;}
	.st30{fill:#4A4A4A;}
	.st31{fill:#515251;}
	.st32{fill:#72706D;}
	.st33{fill:#FFFFFF;}
	.st34{fill:#E6E6E6;}
	.st35{fill:#333333;}
	.st36{fill:#156A14;}
	.st37{fill:#003A00;}
	.st38{fill:#E9E5D8;}
	.st39{fill:#D4C78E;}
	.st40{fill:none;stroke:#FFFFFF;stroke-width:2;stroke-miterlimit:10;}
	.st41{fill:#868686;}
	.st42{fill:#70A370;}
	.st43{opacity:0.9;fill:#C9C9C9;}
	.st44{opacity:0.7;fill:#72706D;}
	.st45{fill:#1F7A34;}
	.st46{fill:#95936D;}
	.st47{fill:#4C0A0B;}
	.st48{fill:#65090C;}
	.st49{fill:#84121A;}
	.st50{fill:#D60918;}
	.st51{fill:#9D946D;}
	.st52{fill:#FEFFFF;}
	.st53{fill:#2F3332;}
	.st54{fill:#434343;}
	.st55{opacity:0.6;fill:#1A1A1A;}
	.st56{opacity:0.5;fill:#739729;}
	.st57{fill:#87AD34;}
	.st58{fill:none;stroke:#DFB678;stroke-miterlimit:10;}
	.st59{fill:#8BBF39;}
	.st60{fill:#DFB678;}
	.st61{fill:none;stroke:#DD601E;stroke-width:7;stroke-miterlimit:10;}
	.st62{fill:none;stroke:#FAF42E;stroke-width:7;stroke-miterlimit:10;}
	.st63{fill:none;stroke:#2F2E2C;stroke-width:7;stroke-miterlimit:10;}
	.st64{fill:none;stroke:#B21810;stroke-width:7;stroke-miterlimit:10;}
	.st65{fill:url(#SVGID_13_);}
	.st66{fill:url(#SVGID_14_);}
	.st67{fill:url(#SVGID_15_);}
	.st68{fill:url(#SVGID_16_);}
	.st69{fill:url(#SVGID_17_);}
	.st70{fill:url(#SVGID_18_);}
	.st71{fill:url(#SVGID_19_);}
	.st72{fill:url(#SVGID_20_);}
	.st73{fill:url(#SVGID_21_);}
	.st74{fill:url(#SVGID_22_);}
	.st75{fill:url(#SVGID_23_);}
	.st76{fill:url(#SVGID_24_);}
	.st77{fill:#890F0C;}
	.st78{fill:#AF481B;}
	.st79{fill:#339E91;}
	.st80{fill:#C4B820;}
	.st81{fill:#30AA29;}
	.st82{fill:#891512;}
</style>
<g id="Camada_1">
</g>
<g id="Camada_2">
	<g>
		<g>
			<g>
				<rect x="6.9" y="45.3" class="st41" width="4.3" height="148"/>
				<rect x="6.9" y="181.2" class="st42" width="4.3" height="12"/>
			</g>
		</g>
		<g>
			<g>
				<g>
					<path class="st81" d="M0,39v4.3c0,0,4,4.7,11.6,4.9c7.6,0.2,12-1.9,12-1.9s6.5-3,7.4-9.3c0.9-6.3-2.5-10.8-2.5-10.8l-2.3,4.9
						l-3.1,6c0,0-6.5,2.3-6.8,2.3c-0.3,0-6.6,0-7.7,0S0,39,0,39z"/>
				</g>
				<g>
					<path class="st3" d="M0,39V14.1C0,6.3,6.3,0,14.1,0h0c7.8,0,14.1,6.3,14.1,14.1l0.3,13.5c0,0,0.9,9.3-4.4,13.3
						c0,0-1.4,1.5-4.8,2.5c-3.4,1-12.1,0.3-15.1-1.4C1.2,40.3,0,39,0,39z"/>
				</g>
			</g>
		</g>
		<path class="st43" d="M2.3,39.1V13.3c0,0-0.5-6,5.4-8.7l2.5,3c0,0-4,0.9-3.9,5.2c0.1,5.6,0,27.9,0,27.9l-1.3,1.6v4.3
			c0,0-3.4-1-3.9-2.5v-3.9L2.3,39.1z"/>
		<path class="st43" d="M17.4,2.5c0,0,4.6-0.2,6.2,4l-1.7,1.9c0,0-2.3-2.8-4.9-2.9V2.5L17.4,2.5z"/>
		<polygon class="st44" points="6.2,18.2 20.4,18.2 11.6,27 6.2,27 		"/>
		<path class="st44" d="M14.8,27l8.8-8.8h0.6v14.6c0,0-1.4,0.1-1.3,0c0.1-0.1,0-5.7,0-5.7H14.8z"/>
	</g>
</g>
</svg>
